<mxfile host="app.diagrams.net" modified="2023-04-28T21:38:25.259Z" agent="Mozilla/5.0 (X11; Linux x86_64) AppleWebKit/537.36 (KHTML, like Gecko) Chrome/112.0.0.0 Safari/537.36" etag="4MFXKNvFW4L3k7zj4anS" version="21.2.3" type="github">
  <diagram id="R2lEEEUBdFMjLlhIrx00" name="Page-1">
    <mxGraphModel dx="3240" dy="1315" grid="1" gridSize="14" guides="1" tooltips="1" connect="1" arrows="1" fold="1" page="1" pageScale="1" pageWidth="850" pageHeight="1100" background="#ffffff" math="0" shadow="0" extFonts="Permanent Marker^https://fonts.googleapis.com/css?family=Permanent+Marker">
      <root>
        <mxCell id="0" />
        <mxCell id="1" parent="0" />
        <mxCell id="P4IsemDNWRHRoisWRi79-3" value="" style="ellipse;whiteSpace=wrap;html=1;" parent="1" vertex="1">
          <mxGeometry x="1145.5" y="2586.25" width="238" height="152.5" as="geometry" />
        </mxCell>
        <mxCell id="P4IsemDNWRHRoisWRi79-2" value="" style="ellipse;whiteSpace=wrap;html=1;" parent="1" vertex="1">
          <mxGeometry x="1409" y="2431.5" width="272" height="163" as="geometry" />
        </mxCell>
        <mxCell id="P4IsemDNWRHRoisWRi79-1" value="" style="ellipse;whiteSpace=wrap;html=1;" parent="1" vertex="1">
          <mxGeometry x="1445" y="2207.5" width="272" height="163" as="geometry" />
        </mxCell>
        <mxCell id="YlZFul1MHV9o11l2ybtj-17" value="&lt;p style=&quot;font-size: 25px;&quot; align=&quot;center&quot;&gt;JUEGO&lt;/p&gt;" style="rounded=0;whiteSpace=wrap;html=1;align=center;strokeWidth=2;" parent="1" vertex="1">
          <mxGeometry x="112" y="1494" width="366" height="198" as="geometry" />
        </mxCell>
        <mxCell id="YlZFul1MHV9o11l2ybtj-47" value="&lt;p&gt;&lt;font style=&quot;font-size: 25px;&quot;&gt;PERSONAJES&lt;/font&gt;&lt;/p&gt;" style="rounded=0;whiteSpace=wrap;html=1;strokeWidth=2;" parent="1" vertex="1">
          <mxGeometry x="936" y="1494" width="360" height="195" as="geometry" />
        </mxCell>
        <mxCell id="YlZFul1MHV9o11l2ybtj-48" value="&lt;p&gt;&lt;font style=&quot;font-size: 25px;&quot;&gt;DIALOGOS&lt;/font&gt;&lt;/p&gt;" style="rounded=0;whiteSpace=wrap;html=1;strokeWidth=2;" parent="1" vertex="1">
          <mxGeometry x="938" y="2203" width="360" height="195" as="geometry" />
        </mxCell>
        <mxCell id="YlZFul1MHV9o11l2ybtj-49" value="" style="endArrow=none;html=1;rounded=0;entryX=0;entryY=0.5;entryDx=0;entryDy=0;strokeWidth=1;exitX=1;exitY=0.5;exitDx=0;exitDy=0;" parent="1" source="YlZFul1MHV9o11l2ybtj-52" target="YlZFul1MHV9o11l2ybtj-61" edge="1">
          <mxGeometry width="50" height="50" relative="1" as="geometry">
            <mxPoint x="292" y="1781" as="sourcePoint" />
            <mxPoint x="725" y="1782" as="targetPoint" />
          </mxGeometry>
        </mxCell>
        <mxCell id="YlZFul1MHV9o11l2ybtj-50" value="&lt;font style=&quot;font-size: 15px;&quot;&gt;ID DIALOGO&lt;/font&gt;" style="ellipse;whiteSpace=wrap;html=1;strokeWidth=2;shadow=0;perimeterSpacing=0;fillStyle=solid;fillColor=#9a9996;gradientColor=none;" parent="1" vertex="1">
          <mxGeometry x="1456" y="1464.75" width="225" height="108" as="geometry" />
        </mxCell>
        <mxCell id="YlZFul1MHV9o11l2ybtj-51" value="&lt;font style=&quot;font-size: 15px;&quot;&gt;HABILIDADES&lt;/font&gt;" style="ellipse;whiteSpace=wrap;html=1;strokeWidth=2;" parent="1" vertex="1">
          <mxGeometry x="833" y="1180" width="210" height="106" as="geometry" />
        </mxCell>
        <mxCell id="YlZFul1MHV9o11l2ybtj-52" value="&lt;font style=&quot;font-size: 15px;&quot;&gt;ESTADISTICAS&lt;/font&gt;" style="ellipse;whiteSpace=wrap;html=1;strokeWidth=2;" parent="1" vertex="1">
          <mxGeometry x="1392.5" y="1258" width="207" height="108" as="geometry" />
        </mxCell>
        <mxCell id="YlZFul1MHV9o11l2ybtj-58" value="&lt;font style=&quot;font-size: 15px;&quot;&gt;SPRITES&lt;/font&gt;" style="ellipse;whiteSpace=wrap;html=1;strokeWidth=2;" parent="1" vertex="1">
          <mxGeometry x="1134" y="1148" width="214" height="110" as="geometry" />
        </mxCell>
        <mxCell id="YlZFul1MHV9o11l2ybtj-59" value="VIDA" style="ellipse;whiteSpace=wrap;html=1;" parent="1" vertex="1">
          <mxGeometry x="1857" y="1017" width="144" height="81" as="geometry" />
        </mxCell>
        <mxCell id="YlZFul1MHV9o11l2ybtj-60" value="ESTAMINA" style="ellipse;whiteSpace=wrap;html=1;" parent="1" vertex="1">
          <mxGeometry x="1820" y="1518.5" width="135" height="79" as="geometry" />
        </mxCell>
        <mxCell id="YlZFul1MHV9o11l2ybtj-61" value="ATAQUE" style="ellipse;whiteSpace=wrap;html=1;" parent="1" vertex="1">
          <mxGeometry x="1876" y="1271.75" width="126" height="80.5" as="geometry" />
        </mxCell>
        <mxCell id="YlZFul1MHV9o11l2ybtj-62" value="DEFENSA" style="ellipse;whiteSpace=wrap;html=1;" parent="1" vertex="1">
          <mxGeometry x="1890" y="1400" width="126" height="89" as="geometry" />
        </mxCell>
        <mxCell id="YlZFul1MHV9o11l2ybtj-63" value="PROBABILIDAD DE CRITICO" style="ellipse;whiteSpace=wrap;html=1;" parent="1" vertex="1">
          <mxGeometry x="1866" y="1148" width="135" height="98" as="geometry" />
        </mxCell>
        <mxCell id="YlZFul1MHV9o11l2ybtj-64" style="edgeStyle=orthogonalEdgeStyle;rounded=0;orthogonalLoop=1;jettySize=auto;html=1;exitX=0.5;exitY=1;exitDx=0;exitDy=0;" parent="1" source="YlZFul1MHV9o11l2ybtj-61" target="YlZFul1MHV9o11l2ybtj-61" edge="1">
          <mxGeometry relative="1" as="geometry" />
        </mxCell>
        <mxCell id="YlZFul1MHV9o11l2ybtj-65" value="IDLE" style="ellipse;whiteSpace=wrap;html=1;" parent="1" vertex="1">
          <mxGeometry x="1316" y="902" width="120" height="80" as="geometry" />
        </mxCell>
        <mxCell id="YlZFul1MHV9o11l2ybtj-66" value="AL ATACAR" style="ellipse;whiteSpace=wrap;html=1;" parent="1" vertex="1">
          <mxGeometry x="1414" y="982" width="120" height="80" as="geometry" />
        </mxCell>
        <mxCell id="YlZFul1MHV9o11l2ybtj-67" value="AL SER ATACADO" style="ellipse;whiteSpace=wrap;html=1;" parent="1" vertex="1">
          <mxGeometry x="1148" y="885" width="120" height="81" as="geometry" />
        </mxCell>
        <mxCell id="YlZFul1MHV9o11l2ybtj-68" value="CON ESTADO ALTERADO" style="ellipse;whiteSpace=wrap;html=1;" parent="1" vertex="1">
          <mxGeometry x="1436" y="1100" width="120" height="80" as="geometry" />
        </mxCell>
        <mxCell id="YlZFul1MHV9o11l2ybtj-69" value="" style="endArrow=none;html=1;rounded=0;exitX=0.5;exitY=1;exitDx=0;exitDy=0;entryX=0.5;entryY=0;entryDx=0;entryDy=0;" parent="1" source="YlZFul1MHV9o11l2ybtj-58" target="YlZFul1MHV9o11l2ybtj-47" edge="1">
          <mxGeometry width="50" height="50" relative="1" as="geometry">
            <mxPoint x="1269" y="1634" as="sourcePoint" />
            <mxPoint x="1319" y="1584" as="targetPoint" />
          </mxGeometry>
        </mxCell>
        <mxCell id="YlZFul1MHV9o11l2ybtj-70" value="" style="endArrow=none;html=1;rounded=0;exitX=0.25;exitY=0;exitDx=0;exitDy=0;entryX=0.5;entryY=1;entryDx=0;entryDy=0;" parent="1" source="YlZFul1MHV9o11l2ybtj-47" target="YlZFul1MHV9o11l2ybtj-51" edge="1">
          <mxGeometry width="50" height="50" relative="1" as="geometry">
            <mxPoint x="1269" y="1634" as="sourcePoint" />
            <mxPoint x="1319" y="1584" as="targetPoint" />
          </mxGeometry>
        </mxCell>
        <mxCell id="YlZFul1MHV9o11l2ybtj-71" value="HABILIDAD 1" style="ellipse;whiteSpace=wrap;html=1;" parent="1" vertex="1">
          <mxGeometry x="630" y="1018" width="120" height="80" as="geometry" />
        </mxCell>
        <mxCell id="YlZFul1MHV9o11l2ybtj-72" value="&lt;div&gt;HABILIDAD 2&lt;/div&gt;" style="ellipse;whiteSpace=wrap;html=1;" parent="1" vertex="1">
          <mxGeometry x="770" y="924" width="120" height="80" as="geometry" />
        </mxCell>
        <mxCell id="YlZFul1MHV9o11l2ybtj-73" value="&lt;div&gt;HABILIDAD 3&lt;/div&gt;" style="ellipse;whiteSpace=wrap;html=1;" parent="1" vertex="1">
          <mxGeometry x="938" y="938" width="120" height="80" as="geometry" />
        </mxCell>
        <mxCell id="YlZFul1MHV9o11l2ybtj-77" value="&lt;font style=&quot;font-size: 25px;&quot;&gt;BACKGROUNDS&lt;/font&gt;" style="rounded=0;whiteSpace=wrap;html=1;strokeWidth=2;" parent="1" vertex="1">
          <mxGeometry x="115" y="2200" width="360" height="198" as="geometry" />
        </mxCell>
        <mxCell id="YlZFul1MHV9o11l2ybtj-80" value="" style="endArrow=none;html=1;rounded=0;exitX=0;exitY=0.5;exitDx=0;exitDy=0;entryX=1;entryY=0.5;entryDx=0;entryDy=0;" parent="1" source="YlZFul1MHV9o11l2ybtj-50" target="YlZFul1MHV9o11l2ybtj-47" edge="1">
          <mxGeometry width="50" height="50" relative="1" as="geometry">
            <mxPoint x="1269" y="1724" as="sourcePoint" />
            <mxPoint x="1319" y="1674" as="targetPoint" />
          </mxGeometry>
        </mxCell>
        <mxCell id="YlZFul1MHV9o11l2ybtj-81" value="" style="endArrow=none;html=1;rounded=0;entryX=0.999;entryY=0.363;entryDx=0;entryDy=0;entryPerimeter=0;exitX=0;exitY=1;exitDx=0;exitDy=0;" parent="1" source="YlZFul1MHV9o11l2ybtj-52" target="YlZFul1MHV9o11l2ybtj-47" edge="1">
          <mxGeometry width="50" height="50" relative="1" as="geometry">
            <mxPoint x="1377" y="1556" as="sourcePoint" />
            <mxPoint x="1319" y="1674" as="targetPoint" />
          </mxGeometry>
        </mxCell>
        <mxCell id="YlZFul1MHV9o11l2ybtj-82" value="" style="endArrow=none;html=1;rounded=0;entryX=1;entryY=0.5;entryDx=0;entryDy=0;exitX=0.005;exitY=0.642;exitDx=0;exitDy=0;exitPerimeter=0;" parent="1" source="YlZFul1MHV9o11l2ybtj-59" target="YlZFul1MHV9o11l2ybtj-52" edge="1">
          <mxGeometry width="50" height="50" relative="1" as="geometry">
            <mxPoint x="1269" y="1724" as="sourcePoint" />
            <mxPoint x="1319" y="1674" as="targetPoint" />
          </mxGeometry>
        </mxCell>
        <mxCell id="YlZFul1MHV9o11l2ybtj-90" value="" style="endArrow=none;html=1;rounded=0;entryX=1;entryY=0.5;entryDx=0;entryDy=0;exitX=0;exitY=0.5;exitDx=0;exitDy=0;" parent="1" source="YlZFul1MHV9o11l2ybtj-60" target="YlZFul1MHV9o11l2ybtj-52" edge="1">
          <mxGeometry relative="1" as="geometry">
            <mxPoint x="1116" y="1755" as="sourcePoint" />
            <mxPoint x="1276" y="1755" as="targetPoint" />
          </mxGeometry>
        </mxCell>
        <mxCell id="YlZFul1MHV9o11l2ybtj-92" value="" style="endArrow=none;html=1;rounded=0;entryX=1;entryY=0.5;entryDx=0;entryDy=0;exitX=0;exitY=0.5;exitDx=0;exitDy=0;" parent="1" source="YlZFul1MHV9o11l2ybtj-62" target="YlZFul1MHV9o11l2ybtj-52" edge="1">
          <mxGeometry relative="1" as="geometry">
            <mxPoint x="1116" y="1755" as="sourcePoint" />
            <mxPoint x="1276" y="1755" as="targetPoint" />
          </mxGeometry>
        </mxCell>
        <mxCell id="YlZFul1MHV9o11l2ybtj-93" value="" style="endArrow=none;html=1;rounded=0;entryX=1;entryY=0.5;entryDx=0;entryDy=0;exitX=0;exitY=0.5;exitDx=0;exitDy=0;" parent="1" source="YlZFul1MHV9o11l2ybtj-63" target="YlZFul1MHV9o11l2ybtj-52" edge="1">
          <mxGeometry relative="1" as="geometry">
            <mxPoint x="1116" y="1755" as="sourcePoint" />
            <mxPoint x="1276" y="1755" as="targetPoint" />
          </mxGeometry>
        </mxCell>
        <mxCell id="YlZFul1MHV9o11l2ybtj-96" value="" style="endArrow=none;html=1;rounded=0;entryX=0.5;entryY=0;entryDx=0;entryDy=0;" parent="1" source="YlZFul1MHV9o11l2ybtj-65" target="YlZFul1MHV9o11l2ybtj-58" edge="1">
          <mxGeometry relative="1" as="geometry">
            <mxPoint x="1116" y="1512" as="sourcePoint" />
            <mxPoint x="1276" y="1512" as="targetPoint" />
          </mxGeometry>
        </mxCell>
        <mxCell id="YlZFul1MHV9o11l2ybtj-97" value="" style="endArrow=none;html=1;rounded=0;entryX=0.5;entryY=0;entryDx=0;entryDy=0;exitX=0;exitY=0.5;exitDx=0;exitDy=0;" parent="1" source="YlZFul1MHV9o11l2ybtj-68" target="YlZFul1MHV9o11l2ybtj-58" edge="1">
          <mxGeometry relative="1" as="geometry">
            <mxPoint x="1116" y="1512" as="sourcePoint" />
            <mxPoint x="1276" y="1512" as="targetPoint" />
          </mxGeometry>
        </mxCell>
        <mxCell id="YlZFul1MHV9o11l2ybtj-98" style="edgeStyle=orthogonalEdgeStyle;rounded=0;orthogonalLoop=1;jettySize=auto;html=1;exitX=0.5;exitY=1;exitDx=0;exitDy=0;" parent="1" source="YlZFul1MHV9o11l2ybtj-68" target="YlZFul1MHV9o11l2ybtj-68" edge="1">
          <mxGeometry relative="1" as="geometry" />
        </mxCell>
        <mxCell id="YlZFul1MHV9o11l2ybtj-99" value="" style="endArrow=none;html=1;rounded=0;entryX=0.5;entryY=0;entryDx=0;entryDy=0;exitX=0;exitY=0.5;exitDx=0;exitDy=0;" parent="1" source="YlZFul1MHV9o11l2ybtj-66" target="YlZFul1MHV9o11l2ybtj-58" edge="1">
          <mxGeometry relative="1" as="geometry">
            <mxPoint x="1116" y="1512" as="sourcePoint" />
            <mxPoint x="1276" y="1512" as="targetPoint" />
          </mxGeometry>
        </mxCell>
        <mxCell id="YlZFul1MHV9o11l2ybtj-100" value="" style="endArrow=none;html=1;rounded=0;entryX=0.5;entryY=1;entryDx=0;entryDy=0;exitX=0.5;exitY=0;exitDx=0;exitDy=0;" parent="1" source="YlZFul1MHV9o11l2ybtj-58" target="YlZFul1MHV9o11l2ybtj-67" edge="1">
          <mxGeometry relative="1" as="geometry">
            <mxPoint x="1404" y="1350" as="sourcePoint" />
            <mxPoint x="1276" y="1512" as="targetPoint" />
          </mxGeometry>
        </mxCell>
        <mxCell id="YlZFul1MHV9o11l2ybtj-101" value="" style="endArrow=none;html=1;rounded=0;entryX=0.5;entryY=1;entryDx=0;entryDy=0;exitX=0.5;exitY=0;exitDx=0;exitDy=0;" parent="1" source="YlZFul1MHV9o11l2ybtj-51" target="YlZFul1MHV9o11l2ybtj-71" edge="1">
          <mxGeometry relative="1" as="geometry">
            <mxPoint x="1120" y="1512" as="sourcePoint" />
            <mxPoint x="1280" y="1512" as="targetPoint" />
          </mxGeometry>
        </mxCell>
        <mxCell id="YlZFul1MHV9o11l2ybtj-102" value="" style="endArrow=none;html=1;rounded=0;entryX=0.5;entryY=1;entryDx=0;entryDy=0;exitX=0.5;exitY=0;exitDx=0;exitDy=0;" parent="1" source="YlZFul1MHV9o11l2ybtj-51" target="YlZFul1MHV9o11l2ybtj-72" edge="1">
          <mxGeometry relative="1" as="geometry">
            <mxPoint x="1120" y="1512" as="sourcePoint" />
            <mxPoint x="1280" y="1512" as="targetPoint" />
          </mxGeometry>
        </mxCell>
        <mxCell id="YlZFul1MHV9o11l2ybtj-103" value="" style="endArrow=none;html=1;rounded=0;entryX=0.5;entryY=1;entryDx=0;entryDy=0;exitX=0.5;exitY=0;exitDx=0;exitDy=0;" parent="1" source="YlZFul1MHV9o11l2ybtj-51" target="YlZFul1MHV9o11l2ybtj-73" edge="1">
          <mxGeometry relative="1" as="geometry">
            <mxPoint x="1120" y="1512" as="sourcePoint" />
            <mxPoint x="1280" y="1512" as="targetPoint" />
          </mxGeometry>
        </mxCell>
        <mxCell id="YlZFul1MHV9o11l2ybtj-106" style="edgeStyle=orthogonalEdgeStyle;rounded=0;orthogonalLoop=1;jettySize=auto;html=1;exitX=0.5;exitY=1;exitDx=0;exitDy=0;" parent="1" source="YlZFul1MHV9o11l2ybtj-68" target="YlZFul1MHV9o11l2ybtj-68" edge="1">
          <mxGeometry relative="1" as="geometry" />
        </mxCell>
        <mxCell id="YlZFul1MHV9o11l2ybtj-107" value="&lt;font style=&quot;font-size: 15px;&quot;&gt;ID PERSONAJE&lt;/font&gt;" style="ellipse;whiteSpace=wrap;html=1;align=center;strokeWidth=2;fillStyle=solid;fillColor=#9a9996;" parent="1" vertex="1">
          <mxGeometry x="-224" y="1386" width="238" height="111" as="geometry" />
        </mxCell>
        <mxCell id="YlZFul1MHV9o11l2ybtj-110" value="&lt;font style=&quot;font-size: 15px;&quot;&gt;NOMBRE&lt;/font&gt;" style="ellipse;whiteSpace=wrap;html=1;align=center;strokeWidth=2;" parent="1" vertex="1">
          <mxGeometry x="588" y="1226.25" width="196" height="126" as="geometry" />
        </mxCell>
        <mxCell id="YlZFul1MHV9o11l2ybtj-111" value="" style="endArrow=none;html=1;rounded=0;entryX=1;entryY=0.75;entryDx=0;entryDy=0;exitX=0;exitY=0;exitDx=0;exitDy=0;" parent="1" source="YlZFul1MHV9o11l2ybtj-116" target="YlZFul1MHV9o11l2ybtj-47" edge="1">
          <mxGeometry relative="1" as="geometry">
            <mxPoint x="994" y="1610" as="sourcePoint" />
            <mxPoint x="1154" y="1610" as="targetPoint" />
          </mxGeometry>
        </mxCell>
        <mxCell id="YlZFul1MHV9o11l2ybtj-112" value="" style="endArrow=none;html=1;rounded=0;exitX=1;exitY=0.5;exitDx=0;exitDy=0;" parent="1" source="YlZFul1MHV9o11l2ybtj-110" target="YlZFul1MHV9o11l2ybtj-47" edge="1">
          <mxGeometry relative="1" as="geometry">
            <mxPoint x="994" y="1610" as="sourcePoint" />
            <mxPoint x="1154" y="1610" as="targetPoint" />
          </mxGeometry>
        </mxCell>
        <mxCell id="YlZFul1MHV9o11l2ybtj-113" style="edgeStyle=orthogonalEdgeStyle;rounded=0;orthogonalLoop=1;jettySize=auto;html=1;exitX=0.5;exitY=1;exitDx=0;exitDy=0;" parent="1" source="YlZFul1MHV9o11l2ybtj-66" target="YlZFul1MHV9o11l2ybtj-66" edge="1">
          <mxGeometry relative="1" as="geometry" />
        </mxCell>
        <mxCell id="YlZFul1MHV9o11l2ybtj-116" value="&lt;font style=&quot;font-size: 15px;&quot;&gt;ID PERSONAJE&lt;/font&gt;" style="ellipse;whiteSpace=wrap;html=1;align=center;fontStyle=4;strokeWidth=2;fillColor=#9a9996;fillStyle=hatch;" parent="1" vertex="1">
          <mxGeometry x="1498" y="1624" width="266" height="153" as="geometry" />
        </mxCell>
        <mxCell id="YlZFul1MHV9o11l2ybtj-122" value="" style="endArrow=none;html=1;rounded=0;entryX=0.5;entryY=1;entryDx=0;entryDy=0;exitX=0.5;exitY=0;exitDx=0;exitDy=0;" parent="1" source="YlZFul1MHV9o11l2ybtj-17" target="YlZFul1MHV9o11l2ybtj-150" edge="1">
          <mxGeometry relative="1" as="geometry">
            <mxPoint x="994" y="1442" as="sourcePoint" />
            <mxPoint x="196" y="1386" as="targetPoint" />
          </mxGeometry>
        </mxCell>
        <mxCell id="YlZFul1MHV9o11l2ybtj-123" value="" style="endArrow=none;html=1;rounded=0;entryX=1;entryY=1;entryDx=0;entryDy=0;exitX=0;exitY=0.5;exitDx=0;exitDy=0;" parent="1" source="YlZFul1MHV9o11l2ybtj-17" target="YlZFul1MHV9o11l2ybtj-107" edge="1">
          <mxGeometry relative="1" as="geometry">
            <mxPoint x="994" y="1442" as="sourcePoint" />
            <mxPoint x="1154" y="1442" as="targetPoint" />
          </mxGeometry>
        </mxCell>
        <mxCell id="YlZFul1MHV9o11l2ybtj-125" value="" style="endArrow=none;html=1;rounded=0;exitX=0;exitY=0.5;exitDx=0;exitDy=0;entryX=1;entryY=0.25;entryDx=0;entryDy=0;" parent="1" source="YlZFul1MHV9o11l2ybtj-146" target="YlZFul1MHV9o11l2ybtj-48" edge="1">
          <mxGeometry relative="1" as="geometry">
            <mxPoint x="1498.0000000000082" y="2319.25" as="sourcePoint" />
            <mxPoint x="1302" y="2265" as="targetPoint" />
          </mxGeometry>
        </mxCell>
        <mxCell id="YlZFul1MHV9o11l2ybtj-143" style="edgeStyle=orthogonalEdgeStyle;rounded=0;orthogonalLoop=1;jettySize=auto;html=1;exitX=0.5;exitY=1;exitDx=0;exitDy=0;" parent="1" source="YlZFul1MHV9o11l2ybtj-126" target="YlZFul1MHV9o11l2ybtj-48" edge="1">
          <mxGeometry relative="1" as="geometry" />
        </mxCell>
        <mxCell id="YlZFul1MHV9o11l2ybtj-126" value="&lt;font style=&quot;font-size: 15px;&quot;&gt;POSEE&lt;/font&gt;" style="shape=rhombus;perimeter=rhombusPerimeter;whiteSpace=wrap;html=1;align=center;" parent="1" vertex="1">
          <mxGeometry x="999.5" y="1820" width="237" height="210" as="geometry" />
        </mxCell>
        <mxCell id="YlZFul1MHV9o11l2ybtj-129" style="edgeStyle=orthogonalEdgeStyle;rounded=0;orthogonalLoop=1;jettySize=auto;html=1;exitX=0.5;exitY=1;exitDx=0;exitDy=0;" parent="1" source="YlZFul1MHV9o11l2ybtj-58" target="YlZFul1MHV9o11l2ybtj-58" edge="1">
          <mxGeometry relative="1" as="geometry" />
        </mxCell>
        <mxCell id="YlZFul1MHV9o11l2ybtj-134" value="" style="endArrow=none;html=1;rounded=0;entryX=0.5;entryY=1;entryDx=0;entryDy=0;exitX=0.5;exitY=0;exitDx=0;exitDy=0;" parent="1" source="YlZFul1MHV9o11l2ybtj-126" target="YlZFul1MHV9o11l2ybtj-47" edge="1">
          <mxGeometry relative="1" as="geometry">
            <mxPoint x="812" y="1736" as="sourcePoint" />
            <mxPoint x="972" y="1736" as="targetPoint" />
          </mxGeometry>
        </mxCell>
        <mxCell id="YlZFul1MHV9o11l2ybtj-142" style="edgeStyle=orthogonalEdgeStyle;rounded=0;orthogonalLoop=1;jettySize=auto;html=1;exitX=1;exitY=0.5;exitDx=0;exitDy=0;" parent="1" source="YlZFul1MHV9o11l2ybtj-136" edge="1">
          <mxGeometry relative="1" as="geometry">
            <mxPoint x="938" y="1593.666666666667" as="targetPoint" />
          </mxGeometry>
        </mxCell>
        <mxCell id="YlZFul1MHV9o11l2ybtj-136" value="TIENE" style="shape=rhombus;perimeter=rhombusPerimeter;whiteSpace=wrap;html=1;align=center;" parent="1" vertex="1">
          <mxGeometry x="588" y="1489" width="245" height="210.75" as="geometry" />
        </mxCell>
        <mxCell id="YlZFul1MHV9o11l2ybtj-138" value="" style="endArrow=none;html=1;rounded=0;entryX=0;entryY=0.5;entryDx=0;entryDy=0;exitX=1;exitY=0.5;exitDx=0;exitDy=0;" parent="1" source="YlZFul1MHV9o11l2ybtj-17" target="YlZFul1MHV9o11l2ybtj-136" edge="1">
          <mxGeometry relative="1" as="geometry">
            <mxPoint x="812" y="1778" as="sourcePoint" />
            <mxPoint x="972" y="1778" as="targetPoint" />
          </mxGeometry>
        </mxCell>
        <mxCell id="YlZFul1MHV9o11l2ybtj-141" style="edgeStyle=orthogonalEdgeStyle;rounded=0;orthogonalLoop=1;jettySize=auto;html=1;exitX=0.5;exitY=1;exitDx=0;exitDy=0;entryX=0.5;entryY=0;entryDx=0;entryDy=0;" parent="1" source="YlZFul1MHV9o11l2ybtj-139" target="YlZFul1MHV9o11l2ybtj-77" edge="1">
          <mxGeometry relative="1" as="geometry" />
        </mxCell>
        <mxCell id="YlZFul1MHV9o11l2ybtj-139" value="TIENE" style="shape=rhombus;perimeter=rhombusPerimeter;whiteSpace=wrap;html=1;align=center;" parent="1" vertex="1">
          <mxGeometry x="176" y="1820" width="238" height="210" as="geometry" />
        </mxCell>
        <mxCell id="YlZFul1MHV9o11l2ybtj-140" value="" style="endArrow=none;html=1;rounded=0;entryX=0.5;entryY=1;entryDx=0;entryDy=0;exitX=0.5;exitY=0;exitDx=0;exitDy=0;" parent="1" source="YlZFul1MHV9o11l2ybtj-139" target="YlZFul1MHV9o11l2ybtj-17" edge="1">
          <mxGeometry relative="1" as="geometry">
            <mxPoint x="812" y="1834" as="sourcePoint" />
            <mxPoint x="972" y="1834" as="targetPoint" />
          </mxGeometry>
        </mxCell>
        <mxCell id="YlZFul1MHV9o11l2ybtj-144" value="&lt;font style=&quot;font-size: 15px;&quot;&gt;ID BACKGROUND&lt;/font&gt;" style="ellipse;whiteSpace=wrap;html=1;align=center;strokeWidth=2;fillColor=#9a9996;fillStyle=hatch;" parent="1" vertex="1">
          <mxGeometry x="392" y="2534" width="266" height="112" as="geometry" />
        </mxCell>
        <mxCell id="YlZFul1MHV9o11l2ybtj-145" value="&lt;font style=&quot;font-size: 15px;&quot;&gt;IMAGEN&lt;/font&gt;" style="ellipse;whiteSpace=wrap;html=1;align=center;strokeWidth=2;" parent="1" vertex="1">
          <mxGeometry x="-56" y="2527" width="252" height="119" as="geometry" />
        </mxCell>
        <mxCell id="YlZFul1MHV9o11l2ybtj-146" value="&lt;font style=&quot;font-size: 15px;&quot;&gt;DIALOGO DE ATACAR&lt;/font&gt;" style="ellipse;whiteSpace=wrap;html=1;align=center;strokeWidth=2;" parent="1" vertex="1">
          <mxGeometry x="1462" y="2226" width="238" height="126" as="geometry" />
        </mxCell>
        <mxCell id="YlZFul1MHV9o11l2ybtj-147" value="&lt;font style=&quot;font-size: 15px;&quot;&gt;DIALOGO DE ATACADO&lt;/font&gt;" style="ellipse;whiteSpace=wrap;html=1;align=center;strokeWidth=2;" parent="1" vertex="1">
          <mxGeometry x="1428" y="2450" width="238" height="126" as="geometry" />
        </mxCell>
        <mxCell id="YlZFul1MHV9o11l2ybtj-148" value="&lt;font style=&quot;font-size: 15px;&quot;&gt;DIALOGO DE SELECCION&lt;/font&gt;" style="ellipse;whiteSpace=wrap;html=1;align=center;strokeWidth=2;" parent="1" vertex="1">
          <mxGeometry x="1162" y="2604" width="205" height="117" as="geometry" />
        </mxCell>
        <mxCell id="YlZFul1MHV9o11l2ybtj-149" value="&lt;font style=&quot;font-size: 15px;&quot;&gt;ID DIALOGO&lt;/font&gt;" style="ellipse;whiteSpace=wrap;html=1;align=center;strokeWidth=2;fillColor=#9a9996;fillStyle=hatch;" parent="1" vertex="1">
          <mxGeometry x="812" y="2604" width="212" height="110" as="geometry" />
        </mxCell>
        <mxCell id="YlZFul1MHV9o11l2ybtj-150" value="&lt;font style=&quot;font-size: 15px;&quot;&gt;NOMBRE&lt;/font&gt;" style="ellipse;whiteSpace=wrap;html=1;align=center;strokeWidth=2;fillColor=#9a9996;fillStyle=hatch;" parent="1" vertex="1">
          <mxGeometry x="56" y="1235" width="252" height="154" as="geometry" />
        </mxCell>
        <mxCell id="YlZFul1MHV9o11l2ybtj-151" value="" style="endArrow=none;html=1;rounded=0;entryX=0.667;entryY=1.003;entryDx=0;entryDy=0;entryPerimeter=0;exitX=0.5;exitY=0;exitDx=0;exitDy=0;" parent="1" source="YlZFul1MHV9o11l2ybtj-144" target="YlZFul1MHV9o11l2ybtj-77" edge="1">
          <mxGeometry relative="1" as="geometry">
            <mxPoint x="812" y="2128" as="sourcePoint" />
            <mxPoint x="972" y="2128" as="targetPoint" />
          </mxGeometry>
        </mxCell>
        <mxCell id="YlZFul1MHV9o11l2ybtj-152" value="" style="endArrow=none;html=1;rounded=0;entryX=0.25;entryY=1;entryDx=0;entryDy=0;exitX=0.5;exitY=0;exitDx=0;exitDy=0;" parent="1" source="YlZFul1MHV9o11l2ybtj-145" target="YlZFul1MHV9o11l2ybtj-77" edge="1">
          <mxGeometry relative="1" as="geometry">
            <mxPoint x="812" y="2128" as="sourcePoint" />
            <mxPoint x="972" y="2128" as="targetPoint" />
          </mxGeometry>
        </mxCell>
        <mxCell id="YlZFul1MHV9o11l2ybtj-153" value="" style="endArrow=none;html=1;rounded=0;entryX=0.5;entryY=1;entryDx=0;entryDy=0;exitX=0.5;exitY=0;exitDx=0;exitDy=0;" parent="1" source="YlZFul1MHV9o11l2ybtj-148" target="YlZFul1MHV9o11l2ybtj-48" edge="1">
          <mxGeometry relative="1" as="geometry">
            <mxPoint x="812" y="2128" as="sourcePoint" />
            <mxPoint x="972" y="2128" as="targetPoint" />
          </mxGeometry>
        </mxCell>
        <mxCell id="YlZFul1MHV9o11l2ybtj-154" value="" style="endArrow=none;html=1;rounded=0;entryX=0.25;entryY=1;entryDx=0;entryDy=0;exitX=0.5;exitY=0;exitDx=0;exitDy=0;" parent="1" source="YlZFul1MHV9o11l2ybtj-149" target="YlZFul1MHV9o11l2ybtj-48" edge="1">
          <mxGeometry relative="1" as="geometry">
            <mxPoint x="812" y="2128" as="sourcePoint" />
            <mxPoint x="972" y="2128" as="targetPoint" />
          </mxGeometry>
        </mxCell>
        <mxCell id="YlZFul1MHV9o11l2ybtj-155" value="" style="endArrow=none;html=1;rounded=0;entryX=1;entryY=0.75;entryDx=0;entryDy=0;exitX=0;exitY=0;exitDx=0;exitDy=0;" parent="1" source="YlZFul1MHV9o11l2ybtj-147" target="YlZFul1MHV9o11l2ybtj-48" edge="1">
          <mxGeometry relative="1" as="geometry">
            <mxPoint x="812" y="2128" as="sourcePoint" />
            <mxPoint x="972" y="2128" as="targetPoint" />
          </mxGeometry>
        </mxCell>
        <mxCell id="P4IsemDNWRHRoisWRi79-4" value="&lt;font style=&quot;font-size: 16px;&quot;&gt;CANCION&lt;/font&gt;" style="ellipse;whiteSpace=wrap;html=1;" parent="1" vertex="1">
          <mxGeometry x="182" y="2646" width="210" height="130" as="geometry" />
        </mxCell>
        <mxCell id="P4IsemDNWRHRoisWRi79-5" value="" style="endArrow=none;html=1;rounded=0;entryX=0.5;entryY=1;entryDx=0;entryDy=0;exitX=0.5;exitY=0;exitDx=0;exitDy=0;" parent="1" source="P4IsemDNWRHRoisWRi79-4" target="YlZFul1MHV9o11l2ybtj-77" edge="1">
          <mxGeometry relative="1" as="geometry">
            <mxPoint x="372" y="2585" as="sourcePoint" />
            <mxPoint x="202" y="2450" as="targetPoint" />
          </mxGeometry>
        </mxCell>
        <mxCell id="P4IsemDNWRHRoisWRi79-6" value="&lt;font style=&quot;font-size: 28px;&quot;&gt;1:M&lt;/font&gt;" style="text;html=1;strokeColor=none;fillColor=none;align=center;verticalAlign=middle;whiteSpace=wrap;rounded=0;" parent="1" vertex="1">
          <mxGeometry x="495" y="1650" width="121" height="72" as="geometry" />
        </mxCell>
        <mxCell id="P4IsemDNWRHRoisWRi79-7" value="&lt;font style=&quot;font-size: 31px;&quot;&gt;1:M&lt;/font&gt;" style="text;html=1;strokeColor=none;fillColor=none;align=center;verticalAlign=middle;whiteSpace=wrap;rounded=0;" parent="1" vertex="1">
          <mxGeometry x="152" y="1708" width="86" height="56" as="geometry" />
        </mxCell>
        <mxCell id="P4IsemDNWRHRoisWRi79-10" value="&lt;font style=&quot;font-size: 31px;&quot;&gt;1:M&lt;/font&gt;" style="text;html=1;strokeColor=none;fillColor=none;align=center;verticalAlign=middle;whiteSpace=wrap;rounded=0;" parent="1" vertex="1">
          <mxGeometry x="1134" y="1708" width="86" height="56" as="geometry" />
        </mxCell>
        <mxCell id="OKzIOX2jL7Ez1NZ-nuzO-1" value="&lt;font style=&quot;font-size: 15px;&quot;&gt;ID_BACKGROUND&lt;/font&gt;" style="ellipse;whiteSpace=wrap;html=1;fillColor=#949494;" vertex="1" parent="1">
          <mxGeometry x="-196" y="1700.5" width="196" height="119.5" as="geometry" />
        </mxCell>
        <mxCell id="OKzIOX2jL7Ez1NZ-nuzO-3" value="" style="endArrow=none;html=1;rounded=0;entryX=1;entryY=0;entryDx=0;entryDy=0;exitX=-0.01;exitY=0.864;exitDx=0;exitDy=0;exitPerimeter=0;" edge="1" parent="1" source="YlZFul1MHV9o11l2ybtj-17" target="OKzIOX2jL7Ez1NZ-nuzO-1">
          <mxGeometry relative="1" as="geometry">
            <mxPoint x="84" y="1722" as="sourcePoint" />
            <mxPoint x="-49" y="1610" as="targetPoint" />
          </mxGeometry>
        </mxCell>
        <mxCell id="OKzIOX2jL7Ez1NZ-nuzO-4" value="&lt;font style=&quot;font-size: 15px;&quot;&gt;DESCRIPCION&lt;/font&gt;" style="ellipse;whiteSpace=wrap;html=1;" vertex="1" parent="1">
          <mxGeometry x="1561" y="1806" width="231" height="150" as="geometry" />
        </mxCell>
        <mxCell id="OKzIOX2jL7Ez1NZ-nuzO-6" value="" style="endArrow=none;html=1;rounded=0;entryX=0.997;entryY=0.903;entryDx=0;entryDy=0;exitX=0.003;exitY=0.382;exitDx=0;exitDy=0;exitPerimeter=0;entryPerimeter=0;" edge="1" parent="1" source="OKzIOX2jL7Ez1NZ-nuzO-4" target="YlZFul1MHV9o11l2ybtj-47">
          <mxGeometry relative="1" as="geometry">
            <mxPoint x="1498" y="1813" as="sourcePoint" />
            <mxPoint x="1258" y="1806" as="targetPoint" />
          </mxGeometry>
        </mxCell>
      </root>
    </mxGraphModel>
  </diagram>
</mxfile>
